<svg width="231" height="58" viewBox="0 0 231 58" fill="none" xmlns="http://www.w3.org/2000/svg">
<g filter="url(#filter0_d_1_352)">
<path d="M19.7556 1.49802C20.0674 0.755239 20.7943 0.271973 21.5998 0.271973H213.545C214.65 0.271973 215.545 1.1674 215.545 2.27197V45.272C215.545 46.3765 214.65 47.272 213.545 47.272H3.55376C2.1244 47.272 1.15644 45.816 1.70957 44.498L19.7556 1.49802Z" fill="#302942"/>
</g>
<path d="M63.6855 29.9751H58.5975V29.3991L60.1655 28.2631L58.9815 25.4151H53.6695L52.4535 28.2471L55.2055 29.2551L54.8375 29.9751H49.9095V29.3991L51.4615 28.1991L55.9095 17.9111L57.7975 17.0951L62.4375 28.3271L64.0375 29.2551L63.6855 29.9751ZM56.3895 19.1271L54.0375 24.5831H58.6455L56.3895 19.1271ZM69.492 29.2711L69.124 29.9911H64.548V29.4151L65.972 28.2791V18.6471L64.548 17.6551V17.0791L67.364 16.0071H68.052V28.7431L69.492 29.2711ZM74.612 29.9911H71.78L68.852 25.7511L71.812 23.2871L70.196 22.1831L70.548 21.4631H74.532V22.0391L70.884 25.0951L73.476 28.7111L74.964 29.2711L74.612 29.9911ZM84.5519 29.9751H81.3839V28.5831L79.5759 30.0071C79.3626 30.0924 79.0959 30.1351 78.7759 30.1351C77.8372 30.1351 77.1599 29.9058 76.7439 29.4471C76.3279 28.9778 76.1199 28.4124 76.1199 27.7511C76.1199 27.3671 76.2532 26.9884 76.5199 26.6151C76.7866 26.2311 77.1759 25.8684 77.6879 25.5271H81.3839V24.6631C81.3839 23.4151 80.7172 22.7911 79.3839 22.7911C78.7119 22.7911 77.8692 23.1698 76.8559 23.9271L76.3759 23.2551L78.6639 21.4471C79.1546 21.3404 79.6879 21.2871 80.2639 21.2871C81.2772 21.2871 82.0612 21.5324 82.6159 22.0231C83.1812 22.5138 83.4639 23.2231 83.4639 24.1511V28.6951L84.9039 29.2551L84.5519 29.9751ZM79.3519 28.6151C79.9812 28.6151 80.6586 28.3324 81.3839 27.7671V26.2631H78.5999C78.4719 26.4231 78.3812 26.5831 78.3279 26.7431C78.2746 26.9031 78.2479 27.0791 78.2479 27.2711C78.2479 27.6444 78.3492 27.9644 78.5519 28.2311C78.7546 28.4871 79.0212 28.6151 79.3519 28.6151ZM91.158 28.1831C91.158 27.9058 90.998 27.6498 90.678 27.4151C90.358 27.1698 89.8674 26.8711 89.206 26.5191C88.6407 26.2204 88.1874 25.9644 87.846 25.7511C87.5154 25.5378 87.2274 25.2924 86.982 25.0151C86.7474 24.7271 86.63 24.4124 86.63 24.0711C86.63 23.6871 86.7954 23.2764 87.126 22.8391C87.4567 22.4018 87.862 22.0338 88.342 21.7351C88.8327 21.4364 89.2807 21.2871 89.686 21.2871C90.1874 21.2871 90.7687 21.3511 91.43 21.4791C92.0914 21.5964 92.5714 21.7298 92.87 21.8791V24.3911H92.182C91.8514 23.7618 91.4674 23.2711 91.03 22.9191C90.5927 22.5564 90.1394 22.3751 89.67 22.3751C89.3607 22.3751 89.11 22.4604 88.918 22.6311C88.7367 22.7911 88.646 22.9938 88.646 23.2391C88.646 23.5484 88.8114 23.8258 89.142 24.0711C89.4727 24.3164 89.9847 24.6258 90.678 24.9991C91.222 25.2764 91.6594 25.5218 91.99 25.7351C92.3207 25.9378 92.6034 26.1778 92.838 26.4551C93.0727 26.7218 93.19 27.0204 93.19 27.3511C93.19 27.7458 93.014 28.1618 92.662 28.5991C92.3207 29.0258 91.8994 29.3884 91.398 29.6871C90.9074 29.9858 90.454 30.1351 90.038 30.1351C89.5047 30.1351 88.8647 30.0711 88.118 29.9431C87.382 29.8151 86.8594 29.6818 86.55 29.5431V27.0151H87.238C87.6007 27.6551 88.0327 28.1564 88.534 28.5191C89.0354 28.8711 89.542 29.0471 90.054 29.0471C90.3847 29.0471 90.6514 28.9618 90.854 28.7911C91.0567 28.6204 91.158 28.4178 91.158 28.1831ZM104.752 29.9911H101.6V24.6471C101.6 24.0818 101.509 23.6871 101.328 23.4631C101.146 23.2284 100.832 23.1111 100.384 23.1111C100.053 23.1111 99.7222 23.1698 99.3915 23.2871C99.0609 23.4044 98.6769 23.6284 98.2395 23.9591V28.7431L99.6795 29.2711L99.3115 29.9911H94.7355V29.4151L96.1595 28.2791V18.6471L94.7355 17.6551V17.0791L97.5515 16.0071H98.2395V23.0951L100.352 21.4151C100.597 21.3298 100.896 21.2871 101.248 21.2871C101.994 21.2871 102.586 21.5111 103.024 21.9591C103.461 22.3964 103.68 22.9938 103.68 23.7511V28.7271L105.12 29.2711L104.752 29.9911ZM122.422 27.3831L122.854 28.1351L119.91 29.9431C119.441 30.0818 118.987 30.1724 118.55 30.2151C118.123 30.2684 117.665 30.2951 117.174 30.2951C115.969 30.2951 114.902 30.0231 113.974 29.4791C113.046 28.9351 112.326 28.1884 111.814 27.2391C111.302 26.2791 111.046 25.1911 111.046 23.9751C111.046 22.7271 111.43 21.5751 112.198 20.5191C112.966 19.4524 113.921 18.6151 115.062 18.0071C116.214 17.3884 117.307 17.0791 118.342 17.0791C118.961 17.0791 119.681 17.1591 120.502 17.3191C121.334 17.4791 121.942 17.6498 122.326 17.8311V21.0791H121.542C120.486 19.3724 119.11 18.5191 117.414 18.5191C116.667 18.5191 115.985 18.7218 115.366 19.1271C114.758 19.5324 114.278 20.0924 113.926 20.8071C113.574 21.5218 113.398 22.3218 113.398 23.2071C113.398 24.2311 113.569 25.1698 113.91 26.0231C114.251 26.8764 114.769 27.5591 115.462 28.0711C116.166 28.5831 117.035 28.8391 118.07 28.8391C118.507 28.8391 118.875 28.8284 119.174 28.8071C119.473 28.7751 119.825 28.6898 120.23 28.5511V24.8711L117.734 24.1991L118.102 23.4791H123.926V24.0551L122.422 25.2551V27.3831ZM134.982 29.9751H131.83V28.3591L129.846 30.0071C129.643 30.0924 129.345 30.1351 128.95 30.1351C128.203 30.1351 127.611 29.9164 127.174 29.4791C126.737 29.0311 126.518 28.4284 126.518 27.6711V23.9271L125.094 23.0951V22.5191L127.91 21.1751H128.598V26.7911C128.598 27.3671 128.689 27.7724 128.87 28.0071C129.051 28.2311 129.366 28.3431 129.814 28.3431C130.123 28.3431 130.433 28.2844 130.742 28.1671C131.051 28.0498 131.414 27.8258 131.83 27.4951V23.9271L130.406 23.0951V22.5191L133.222 21.1751H133.91V28.7271L135.35 29.2551L134.982 29.9751ZM141.72 30.1511C141.176 30.1511 140.669 29.9911 140.2 29.6711V32.6631L142.472 33.3351L142.12 34.0551H136.696V33.4791L138.12 32.3431V23.9271L136.696 23.0791V22.5031L139.544 21.1431L140.104 23.1911L142.328 21.4151C142.669 21.3298 143.059 21.2871 143.496 21.2871C144.083 21.2871 144.616 21.4738 145.096 21.8471C145.576 22.2098 145.949 22.7111 146.216 23.3511C146.483 23.9804 146.616 24.6738 146.616 25.4311C146.616 26.2631 146.36 27.0418 145.848 27.7671C145.347 28.4818 144.712 29.0578 143.944 29.4951C143.176 29.9218 142.435 30.1351 141.72 30.1351V30.1511ZM142.632 22.9671C142.237 22.9671 141.853 23.0418 141.48 23.1911C141.117 23.3298 140.691 23.6071 140.2 24.0231V26.7111C140.2 27.2764 140.408 27.7511 140.824 28.1351C141.251 28.5191 141.859 28.7111 142.648 28.7111C143.224 28.7111 143.656 28.5031 143.944 28.0871C144.232 27.6604 144.376 27.0364 144.376 26.2151C144.376 25.2978 144.221 24.5298 143.912 23.9111C143.613 23.2818 143.187 22.9671 142.632 22.9671ZM153.26 30.0071C152.993 30.0924 152.668 30.1351 152.284 30.1351C151.367 30.1351 150.695 29.9058 150.268 29.4471C149.852 28.9778 149.644 28.2578 149.644 27.2871V22.6631H147.916V21.9751L151.036 18.3911H151.724V21.9271H154.604V22.6631H151.724V27.4151C151.724 28.2578 152.14 28.6791 152.972 28.6791C153.196 28.6791 153.409 28.6364 153.612 28.5511C153.815 28.4551 154.076 28.2898 154.396 28.0551L154.876 28.7271L153.26 30.0071ZM164.458 29.9751H161.29V28.5831L159.482 30.0071C159.269 30.0924 159.002 30.1351 158.682 30.1351C157.743 30.1351 157.066 29.9058 156.65 29.4471C156.234 28.9778 156.026 28.4124 156.026 27.7511C156.026 27.3671 156.159 26.9884 156.426 26.6151C156.693 26.2311 157.082 25.8684 157.594 25.5271H161.29V24.6631C161.29 23.4151 160.623 22.7911 159.29 22.7911C158.618 22.7911 157.775 23.1698 156.762 23.9271L156.282 23.2551L158.57 21.4471C159.061 21.3404 159.594 21.2871 160.17 21.2871C161.183 21.2871 161.967 21.5324 162.522 22.0231C163.087 22.5138 163.37 23.2231 163.37 24.1511V28.6951L164.81 29.2551L164.458 29.9751ZM159.258 28.6151C159.887 28.6151 160.565 28.3324 161.29 27.7671V26.2631H158.506C158.378 26.4231 158.287 26.5831 158.234 26.7431C158.181 26.9031 158.154 27.0791 158.154 27.2711C158.154 27.6444 158.255 27.9644 158.458 28.2311C158.661 28.4871 158.927 28.6151 159.258 28.6151Z" fill="white"/>
<defs>
<filter id="filter0_d_1_352" x="1.55164" y="0.271973" width="228.994" height="57" filterUnits="userSpaceOnUse" color-interpolation-filters="sRGB">
<feFlood flood-opacity="0" result="BackgroundImageFix"/>
<feColorMatrix in="SourceAlpha" type="matrix" values="0 0 0 0 0 0 0 0 0 0 0 0 0 0 0 0 0 0 127 0" result="hardAlpha"/>
<feOffset dx="10" dy="5"/>
<feGaussianBlur stdDeviation="2.5"/>
<feComposite in2="hardAlpha" operator="out"/>
<feColorMatrix type="matrix" values="0 0 0 0 0 0 0 0 0 0 0 0 0 0 0 0 0 0 0.25 0"/>
<feBlend mode="normal" in2="BackgroundImageFix" result="effect1_dropShadow_1_352"/>
<feBlend mode="normal" in="SourceGraphic" in2="effect1_dropShadow_1_352" result="shape"/>
</filter>
</defs>
</svg>
