<svg width="40" height="40" viewBox="0 0 40 40" fill="none" xmlns="http://www.w3.org/2000/svg">
<g clip-path="url(#clip0_75_274)">
<path d="M37.793 0H2.20701C0.988113 0 0 0.988113 0 2.20701V37.793C0 39.0119 0.988113 40 2.20701 40H37.793C39.0119 40 40 39.0119 40 37.793V2.20701C40 0.988113 39.0119 0 37.793 0Z" fill="#0537A1"/>
<path d="M27.0251 39.6333V25.3114H31.8314L32.5501 19.7302H27.0251V16.1677C27.0251 14.552 27.4751 13.4489 29.7907 13.4489H32.747V8.4489C31.3155 8.2997 29.8769 8.22876 28.4376 8.2364C24.1814 8.2364 21.2501 10.8301 21.2501 15.6145V19.7302H16.4438V25.3114H21.2501V39.6333H27.0251Z" fill="white"/>
</g>
<defs>
<clipPath id="clip0_75_274">
<rect width="40" height="40" fill="white"/>
</clipPath>
</defs>
</svg>
