<svg width="40" height="40" viewBox="0 0 40 40" fill="none" xmlns="http://www.w3.org/2000/svg">
<g clip-path="url(#clip0_75_271)">
<path d="M37.0492 0.000151475H2.95082C2.17715 -0.00772217 1.43196 0.291639 0.87875 0.832548C0.325544 1.37346 0.00951189 2.11173 0 2.88538V37.1212C0.0112321 37.8937 0.32802 38.6303 0.881039 39.1698C1.43406 39.7093 2.17827 40.0077 2.95082 39.9999H37.0492C37.8229 40.006 38.5676 39.7056 39.1205 39.1644C39.6734 38.6231 39.9896 37.885 40 37.1113V2.87554C39.9862 2.10416 39.6685 1.36941 39.1159 0.830984C38.5634 0.292558 37.8207 -0.00601951 37.0492 0.000151475Z" fill="#0076B2"/>
<path d="M6.58135 15.228H12.2407V33.4374H6.58135V15.228ZM9.4126 6.16553C10.0617 6.16553 10.6962 6.35805 11.2359 6.71874C11.7756 7.07942 12.1961 7.59207 12.4444 8.19182C12.6926 8.79157 12.7574 9.45148 12.6306 10.0881C12.5037 10.7247 12.1909 11.3093 11.7317 11.7681C11.2725 12.2268 10.6875 12.5391 10.0508 12.6654C9.41411 12.7916 8.75427 12.7262 8.15475 12.4774C7.55524 12.2285 7.04299 11.8075 6.68282 11.2675C6.32265 10.7275 6.13073 10.0928 6.13135 9.44365C6.13218 8.57395 6.47824 7.74016 7.09351 7.12548C7.70877 6.5108 8.5429 6.16553 9.4126 6.16553ZM15.7907 15.228H21.2157V17.728H21.2907C22.047 16.2968 23.8907 14.7874 26.6438 14.7874C32.3751 14.7749 33.4376 18.5468 33.4376 23.4374V33.4374H27.7782V24.578C27.7782 22.4687 27.7407 19.753 24.8376 19.753C21.9345 19.753 21.4407 22.053 21.4407 24.4405V33.4374H15.7907V15.228Z" fill="white"/>
</g>
<defs>
<clipPath id="clip0_75_271">
<rect width="40" height="40" fill="white"/>
</clipPath>
</defs>
</svg>
