<svg width="230" height="58" viewBox="0 0 230 58" fill="none" xmlns="http://www.w3.org/2000/svg">
<g filter="url(#filter0_d_1_282)">
<path d="M19.2095 1.4985C19.5212 0.755727 20.2481 0.272461 21.0537 0.272461H212.999C214.104 0.272461 214.999 1.16789 214.999 2.27246V45.2725C214.999 46.377 214.104 47.2725 212.999 47.2725H3.00761C1.57826 47.2725 0.610301 45.8165 1.16343 44.4985L19.2095 1.4985Z" fill="#302942"/>
</g>
<path d="M58.7198 29.9596H55.6478L52.2238 24.3116L51.4718 23.7836L51.7438 23.2396H52.6078C53.3118 23.2396 53.8611 23.0583 54.2558 22.6956C54.6611 22.3329 54.8638 21.8316 54.8638 21.1916C54.8638 20.3596 54.6344 19.6769 54.1758 19.1436C53.7278 18.5996 53.0664 18.3276 52.1918 18.3276C51.6264 18.3276 51.0984 18.5036 50.6078 18.8556V28.6956L52.3038 29.2556L51.9518 29.9756H46.9278V29.3996L48.4318 28.2156V18.6476L46.7358 18.1196L47.1038 17.3996H49.1198C50.0904 17.3996 51.0344 17.3676 51.9518 17.3036C52.6344 17.2609 53.1358 17.2396 53.4558 17.2396C54.1918 17.2396 54.8478 17.3836 55.4238 17.6716C55.9998 17.9596 56.4424 18.3543 56.7518 18.8556C57.0718 19.3463 57.2318 19.8849 57.2318 20.4716C57.2318 20.9943 57.0664 21.4956 56.7358 21.9756C56.4158 22.4556 55.9891 22.8769 55.4558 23.2396C54.9224 23.6023 54.3571 23.8796 53.7598 24.0716L54.8478 24.4236L57.2318 28.3596L59.0878 29.2396L58.7198 29.9596ZM64.5019 29.9756H59.9259V29.3996L61.3499 28.2636V23.7836L59.9259 22.8076V22.2316L62.7419 21.1436H63.4299V28.7276L64.8699 29.2556L64.5019 29.9756ZM62.3259 16.3436C62.6779 16.3436 62.9659 16.4716 63.1899 16.7276C63.4139 16.9729 63.5259 17.2769 63.5259 17.6396C63.5259 17.8956 63.4459 18.1409 63.2859 18.3756C63.1259 18.5996 62.9232 18.7809 62.6779 18.9196C62.4325 19.0476 62.1925 19.1116 61.9579 19.1116C61.6165 19.1116 61.3339 18.9889 61.1099 18.7436C60.8859 18.4983 60.7739 18.1889 60.7739 17.8156C60.7739 17.5596 60.8539 17.3196 61.0139 17.0956C61.1739 16.8609 61.3765 16.6796 61.6219 16.5516C61.8672 16.4129 62.1019 16.3436 62.3259 16.3436ZM71.2471 28.1836C71.2471 27.9063 71.0871 27.6503 70.7671 27.4156C70.4471 27.1703 69.9565 26.8716 69.2951 26.5196C68.7298 26.2209 68.2765 25.9649 67.9351 25.7516C67.6045 25.5383 67.3165 25.2929 67.0711 25.0156C66.8365 24.7276 66.7191 24.4129 66.7191 24.0716C66.7191 23.6876 66.8845 23.2769 67.2151 22.8396C67.5458 22.4023 67.9511 22.0343 68.4311 21.7356C68.9218 21.4369 69.3698 21.2876 69.7751 21.2876C70.2765 21.2876 70.8578 21.3516 71.5191 21.4796C72.1805 21.5969 72.6605 21.7303 72.9591 21.8796V24.3916H72.2711C71.9405 23.7623 71.5565 23.2716 71.1191 22.9196C70.6818 22.5569 70.2285 22.3756 69.7591 22.3756C69.4498 22.3756 69.1991 22.4609 69.0071 22.6316C68.8258 22.7916 68.7351 22.9943 68.7351 23.2396C68.7351 23.5489 68.9005 23.8263 69.2311 24.0716C69.5618 24.3169 70.0738 24.6263 70.7671 24.9996C71.3111 25.2769 71.7485 25.5223 72.0791 25.7356C72.4098 25.9383 72.6925 26.1783 72.9271 26.4556C73.1618 26.7223 73.2791 27.0209 73.2791 27.3516C73.2791 27.7463 73.1031 28.1623 72.7511 28.5996C72.4098 29.0263 71.9885 29.3889 71.4871 29.6876C70.9965 29.9863 70.5431 30.1356 70.1271 30.1356C69.5938 30.1356 68.9538 30.0716 68.2071 29.9436C67.4711 29.8156 66.9485 29.6823 66.6391 29.5436V27.0156H67.3271C67.6898 27.6556 68.1218 28.1569 68.6231 28.5196C69.1245 28.8716 69.6311 29.0476 70.1431 29.0476C70.4738 29.0476 70.7405 28.9623 70.9431 28.7916C71.1458 28.6209 71.2471 28.4183 71.2471 28.1836ZM84.8406 29.9916H81.6886V24.6476C81.6886 24.0823 81.598 23.6876 81.4166 23.4636C81.2353 23.2289 80.9206 23.1116 80.4726 23.1116C80.142 23.1116 79.8113 23.1703 79.4806 23.2876C79.15 23.4049 78.766 23.6289 78.3286 23.9596V28.7436L79.7686 29.2716L79.4006 29.9916H74.8246V29.4156L76.2486 28.2796V18.6476L74.8246 17.6556V17.0796L77.6406 16.0076H78.3286V23.0956L80.4406 21.4156C80.686 21.3303 80.9846 21.2876 81.3366 21.2876C82.0833 21.2876 82.6753 21.5116 83.1126 21.9596C83.55 22.3969 83.7686 22.9943 83.7686 23.7516V28.7276L85.2086 29.2716L84.8406 29.9916ZM94.9223 29.9756H91.7543V28.5836L89.9463 30.0076C89.7329 30.0929 89.4663 30.1356 89.1463 30.1356C88.2076 30.1356 87.5303 29.9063 87.1143 29.4476C86.6983 28.9783 86.4903 28.4129 86.4903 27.7516C86.4903 27.3676 86.6236 26.9889 86.8903 26.6156C87.1569 26.2316 87.5463 25.8689 88.0583 25.5276H91.7543V24.6636C91.7543 23.4156 91.0876 22.7916 89.7543 22.7916C89.0823 22.7916 88.2396 23.1703 87.2263 23.9276L86.7463 23.2556L89.0343 21.4476C89.5249 21.3409 90.0583 21.2876 90.6343 21.2876C91.6476 21.2876 92.4316 21.5329 92.9863 22.0236C93.5516 22.5143 93.8343 23.2236 93.8343 24.1516V28.6956L95.2743 29.2556L94.9223 29.9756ZM89.7223 28.6156C90.3516 28.6156 91.0289 28.3329 91.7543 27.7676V26.2636H88.9703C88.8423 26.4236 88.7516 26.5836 88.6983 26.7436C88.6449 26.9036 88.6183 27.0796 88.6183 27.2716C88.6183 27.6449 88.7196 27.9649 88.9223 28.2316C89.1249 28.4876 89.3916 28.6156 89.7223 28.6156ZM105.096 22.0236L101.048 29.9756H99.6724L97.1924 23.9436L95.6884 23.0636V22.4876L98.5844 21.1436L99.1924 23.5596L101.112 28.2156L103.304 23.7196L101.144 22.1676L101.496 21.4476H105.096V22.0236ZM122.605 27.3836L123.037 28.1356L120.093 29.9436C119.623 30.0823 119.17 30.1729 118.733 30.2156C118.306 30.2689 117.847 30.2956 117.357 30.2956C116.151 30.2956 115.085 30.0236 114.157 29.4796C113.229 28.9356 112.509 28.1889 111.997 27.2396C111.485 26.2796 111.229 25.1916 111.229 23.9756C111.229 22.7276 111.613 21.5756 112.381 20.5196C113.149 19.4529 114.103 18.6156 115.245 18.0076C116.397 17.3889 117.49 17.0796 118.525 17.0796C119.143 17.0796 119.863 17.1596 120.685 17.3196C121.517 17.4796 122.125 17.6503 122.509 17.8316V21.0796H121.725C120.669 19.3729 119.293 18.5196 117.597 18.5196C116.85 18.5196 116.167 18.7223 115.549 19.1276C114.941 19.5329 114.461 20.0929 114.109 20.8076C113.757 21.5223 113.581 22.3223 113.581 23.2076C113.581 24.2316 113.751 25.1703 114.093 26.0236C114.434 26.8769 114.951 27.5596 115.645 28.0716C116.349 28.5836 117.218 28.8396 118.253 28.8396C118.69 28.8396 119.058 28.8289 119.357 28.8076C119.655 28.7756 120.007 28.6903 120.413 28.5516V24.8716L117.917 24.1996L118.285 23.4796H124.109V24.0556L122.605 25.2556V27.3836ZM135.325 29.9916H132.173V24.6476C132.173 24.0823 132.082 23.6876 131.901 23.4636C131.72 23.2289 131.405 23.1116 130.957 23.1116C130.626 23.1116 130.296 23.1703 129.965 23.2876C129.634 23.4049 129.25 23.6289 128.813 23.9596V28.7436L130.253 29.2716L129.885 29.9916H125.309V29.4156L126.733 28.2796V18.6476L125.309 17.6556V17.0796L128.125 16.0076H128.813V23.0956L130.925 21.4156C131.17 21.3303 131.469 21.2876 131.821 21.2876C132.568 21.2876 133.16 21.5116 133.597 21.9596C134.034 22.3969 134.253 22.9943 134.253 23.7516V28.7276L135.693 29.2716L135.325 29.9916ZM142.015 21.2876C142.74 21.2876 143.386 21.4743 143.951 21.8476C144.527 22.2103 144.975 22.7063 145.295 23.3356C145.615 23.9649 145.775 24.6636 145.775 25.4316C145.775 26.2636 145.519 27.0423 145.007 27.7676C144.506 28.4823 143.871 29.0583 143.103 29.4956C142.335 29.9223 141.594 30.1356 140.879 30.1356C140.164 30.1356 139.519 29.9543 138.943 29.5916C138.378 29.2183 137.93 28.7169 137.599 28.0876C137.279 27.4583 137.119 26.7596 137.119 25.9916C137.119 25.1596 137.37 24.3863 137.871 23.6716C138.383 22.9463 139.023 22.3703 139.791 21.9436C140.559 21.5063 141.3 21.2876 142.015 21.2876ZM141.087 22.7436C139.935 22.7436 139.359 23.5703 139.359 25.2236C139.359 26.2156 139.567 27.0423 139.983 27.7036C140.41 28.3649 141.018 28.6956 141.807 28.6956C142.372 28.6956 142.799 28.4823 143.087 28.0556C143.375 27.6289 143.519 27.0049 143.519 26.1836C143.519 25.2023 143.306 24.3863 142.879 23.7356C142.463 23.0743 141.866 22.7436 141.087 22.7436ZM152.732 28.1836C152.732 27.9063 152.572 27.6503 152.252 27.4156C151.932 27.1703 151.441 26.8716 150.78 26.5196C150.214 26.2209 149.761 25.9649 149.42 25.7516C149.089 25.5383 148.801 25.2929 148.556 25.0156C148.321 24.7276 148.204 24.4129 148.204 24.0716C148.204 23.6876 148.369 23.2769 148.7 22.8396C149.03 22.4023 149.436 22.0343 149.916 21.7356C150.406 21.4369 150.854 21.2876 151.26 21.2876C151.761 21.2876 152.342 21.3516 153.004 21.4796C153.665 21.5969 154.145 21.7303 154.444 21.8796V24.3916H153.756C153.425 23.7623 153.041 23.2716 152.604 22.9196C152.166 22.5569 151.713 22.3756 151.244 22.3756C150.934 22.3756 150.684 22.4609 150.492 22.6316C150.31 22.7916 150.22 22.9943 150.22 23.2396C150.22 23.5489 150.385 23.8263 150.716 24.0716C151.046 24.3169 151.558 24.6263 152.252 24.9996C152.796 25.2769 153.233 25.5223 153.564 25.7356C153.894 25.9383 154.177 26.1783 154.412 26.4556C154.646 26.7223 154.764 27.0209 154.764 27.3516C154.764 27.7463 154.588 28.1623 154.236 28.5996C153.894 29.0263 153.473 29.3889 152.972 29.6876C152.481 29.9863 152.028 30.1356 151.612 30.1356C151.078 30.1356 150.438 30.0716 149.692 29.9436C148.956 29.8156 148.433 29.6823 148.124 29.5436V27.0156H148.812C149.174 27.6556 149.606 28.1569 150.108 28.5196C150.609 28.8716 151.116 29.0476 151.628 29.0476C151.958 29.0476 152.225 28.9623 152.428 28.7916C152.63 28.6209 152.732 28.4183 152.732 28.1836ZM166.325 29.9916H163.173V24.6476C163.173 24.0823 163.082 23.6876 162.901 23.4636C162.72 23.2289 162.405 23.1116 161.957 23.1116C161.626 23.1116 161.296 23.1703 160.965 23.2876C160.634 23.4049 160.25 23.6289 159.813 23.9596V28.7436L161.253 29.2716L160.885 29.9916H156.309V29.4156L157.733 28.2796V18.6476L156.309 17.6556V17.0796L159.125 16.0076H159.813V23.0956L161.925 21.4156C162.17 21.3303 162.469 21.2876 162.821 21.2876C163.568 21.2876 164.16 21.5116 164.597 21.9596C165.034 22.3969 165.253 22.9943 165.253 23.7516V28.7276L166.693 29.2716L166.325 29.9916Z" fill="white"/>
<defs>
<filter id="filter0_d_1_282" x="1.00562" y="0.272461" width="228.994" height="57" filterUnits="userSpaceOnUse" color-interpolation-filters="sRGB">
<feFlood flood-opacity="0" result="BackgroundImageFix"/>
<feColorMatrix in="SourceAlpha" type="matrix" values="0 0 0 0 0 0 0 0 0 0 0 0 0 0 0 0 0 0 127 0" result="hardAlpha"/>
<feOffset dx="10" dy="5"/>
<feGaussianBlur stdDeviation="2.5"/>
<feComposite in2="hardAlpha" operator="out"/>
<feColorMatrix type="matrix" values="0 0 0 0 0 0 0 0 0 0 0 0 0 0 0 0 0 0 0.25 0"/>
<feBlend mode="normal" in2="BackgroundImageFix" result="effect1_dropShadow_1_282"/>
<feBlend mode="normal" in="SourceGraphic" in2="effect1_dropShadow_1_282" result="shape"/>
</filter>
</defs>
</svg>
